<?xml version="1.0" standalone="no"?>
<!DOCTYPE svg PUBLIC "-//W3C//DTD SVG 20010904//EN"
 "http://www.w3.org/TR/2001/REC-SVG-20010904/DTD/svg10.dtd">
<svg version="1.0" xmlns="http://www.w3.org/2000/svg"
 width="868.000000pt" height="868.000000pt" viewBox="0 0 868.000000 868.000000"
 preserveAspectRatio="xMidYMid meet">
<metadata>
Created by potrace 1.11, written by Peter Selinger 2001-2013
</metadata>
<g transform="translate(0.000000,868.000000) scale(0.100000,-0.100000)"
fill="#000000" stroke="none">
<path d="M4184 7124 c-89 -99 -106 -117 -173 -190 -31 -33 -88 -96 -127 -140
-40 -44 -85 -94 -100 -110 -34 -37 -161 -177 -187 -208 -10 -11 -58 -64 -106
-116 -48 -52 -139 -151 -201 -220 -62 -69 -134 -148 -159 -175 -25 -28 -66
-73 -91 -100 -39 -43 -173 -191 -249 -274 -12 -14 -60 -66 -105 -115 -44 -50
-88 -97 -96 -106 -8 -9 -49 -54 -90 -100 -41 -46 -82 -91 -90 -100 -8 -9 -55
-61 -105 -115 -49 -55 -111 -122 -136 -150 -25 -27 -65 -72 -90 -99 -24 -27
-53 -59 -64 -70 -11 -12 -56 -61 -100 -110 -44 -50 -91 -101 -105 -116 -14
-14 -56 -61 -94 -103 -76 -85 -75 -84 -196 -216 -47 -52 -93 -103 -103 -115
-10 -11 -58 -63 -105 -115 -48 -51 -95 -103 -105 -115 -18 -21 -138 -152 -187
-206 -14 -15 -56 -62 -95 -105 -38 -42 -83 -92 -100 -109 -16 -18 -66 -72
-110 -121 -79 -88 -189 -209 -210 -231 -5 -6 -44 -48 -85 -95 -41 -46 -84 -93
-95 -104 -11 -12 -38 -41 -59 -66 -22 -24 -82 -90 -133 -146 -52 -56 -103
-113 -113 -126 l-19 -24 72 -76 c40 -41 162 -169 272 -283 231 -239 400 -415
509 -529 l77 -79 22 26 c26 29 173 192 202 222 11 12 56 62 100 111 44 50 83
92 86 95 3 3 54 59 114 125 60 66 126 138 146 160 77 85 93 102 153 169 33 37
72 80 86 95 41 45 193 213 241 266 24 27 53 59 64 70 11 12 58 64 105 115 47
52 96 105 109 119 13 14 53 59 90 100 36 41 73 81 81 90 9 9 56 61 105 116 50
55 92 102 95 105 3 3 52 57 110 120 57 63 144 160 194 214 50 55 100 110 111
122 70 77 192 212 326 359 138 152 173 191 244 269 11 13 61 67 110 121 50 54
98 107 108 119 10 12 35 39 55 61 21 22 78 85 127 140 50 54 113 123 140 153
l51 54 139 -147 c77 -80 165 -172 195 -204 86 -90 352 -369 420 -441 85 -89
357 -376 400 -421 19 -20 100 -105 180 -189 80 -84 165 -174 190 -200 25 -26
115 -120 200 -210 210 -221 223 -235 400 -421 227 -238 245 -257 323 -339 163
-172 428 -450 513 -540 50 -52 135 -142 190 -199 54 -58 147 -154 206 -215
l106 -111 40 45 c22 25 57 64 78 86 22 23 75 81 119 129 44 48 94 102 110 119
17 18 73 79 125 136 52 57 106 116 120 131 14 15 62 67 106 115 45 49 109 118
143 154 33 36 61 70 61 75 0 6 -37 48 -83 95 -80 83 -342 359 -447 470 -53 56
-329 346 -476 500 -45 47 -96 101 -114 120 -18 19 -105 111 -194 204 -88 93
-181 190 -206 216 -25 26 -113 119 -196 206 -84 88 -171 179 -194 204 -23 25
-115 122 -204 215 -90 94 -174 182 -187 196 -13 15 -97 102 -185 195 -89 93
-176 185 -194 204 -18 19 -104 109 -190 200 -87 91 -182 190 -210 220 -51 54
-291 307 -380 400 -25 26 -115 121 -200 210 -85 90 -175 185 -200 211 -95 99
-350 367 -419 439 -58 62 -77 76 -105 78 -30 2 -40 -5 -102 -74z"/>
<path d="M4254 4264 c-111 -123 -117 -130 -149 -166 -16 -18 -56 -62 -90 -98
-33 -36 -94 -103 -135 -149 -41 -45 -88 -98 -105 -116 -97 -105 -240 -264
-300 -331 -5 -6 -48 -53 -95 -104 -47 -51 -95 -104 -107 -118 -67 -73 -183
-202 -220 -242 -24 -25 -43 -49 -43 -53 0 -4 15 -23 33 -41 17 -18 124 -128
237 -245 113 -118 234 -244 270 -281 36 -37 157 -163 270 -280 113 -117 239
-247 280 -290 41 -43 119 -123 172 -179 l96 -101 74 81 c91 101 93 103 204
225 51 54 109 119 130 143 22 24 55 60 74 81 19 21 64 70 100 110 86 96 92
102 190 210 107 118 118 129 198 218 37 41 80 88 97 106 16 18 66 73 110 121
44 49 95 105 112 124 18 20 32 39 30 42 -2 6 -239 255 -452 474 -49 51 -144
149 -210 218 -66 68 -208 215 -315 326 -107 112 -236 245 -285 297 -50 52 -93
94 -96 94 -3 0 -37 -34 -75 -76z"/>
</g>
</svg>
